<?xml version="1.0"?>
<svg xmlns="http://www.w3.org/2000/svg" xmlns:xlink="http://www.w3.org/1999/xlink" xmlns:svgjs="http://svgjs.com/svgjs" version="1.1" width="512" height="512" x="0" y="0" viewBox="0 0 510.993 510.993" style="enable-background:new 0 0 512 512" xml:space="preserve" class=""><g><path xmlns="http://www.w3.org/2000/svg" d="m255.496 0c-96.853 0-175.649 78.796-175.649 175.649v.667c0 34.718 9.311 68.883 26.926 98.799l134.534 228.489c2.687 4.563 7.579 7.371 12.874 7.389h.052c5.274 0 10.164-2.771 12.873-7.3l136.427-228.089c18.064-30.2 27.612-64.764 27.612-99.955 0-96.853-78.796-175.649-175.649-175.649zm-1.262 254.39c-41.701 0-75.506-33.805-75.506-75.506s33.805-75.506 75.506-75.506 75.506 33.805 75.506 75.506c0 41.7-33.805 75.506-75.506 75.506z" fill="#ffffff" data-original="#000000" style="" class=""/></g></svg>
